<?xml version="1.0" encoding="utf-8"?>
<!-- Generator: Adobe Illustrator 21.1.0, SVG Export Plug-In . SVG Version: 6.00 Build 0)  -->
<svg version="1.1" id="Capa_1" xmlns="http://www.w3.org/2000/svg" xmlns:xlink="http://www.w3.org/1999/xlink" x="0px" y="0px"
	 viewBox="0 0 1920 800" style="enable-background:new 0 0 1920 800;" xml:space="preserve">
<style type="text/css">
	.st0{opacity:0.3;fill:none;stroke:#5E5E5E;stroke-width:0.25;stroke-miterlimit:10;enable-background:new    ;}
	.st1{opacity:0.3;fill:#C9C9C9;enable-background:new    ;}
	.st2{opacity:0.3;fill:#C9C9C9;}
</style>
<title>background_single</title>
<path class="st0" d="M35.5,308.8H0.4v-35.2h35.2V308.8z M1.1,308h33.7v-33.7H1.1V308z"/>
<path class="st0" d="M69.3,308.8H34.1v-35.2h35.2V308.8z M34.8,308h33.7v-33.7H34.8V308z"/>
<path class="st0" d="M275.3,308.8h-35.2v-35.2h35.2V308.8z M240.8,308h33.7v-33.7h-33.7V308z"/>
<path class="st0" d="M309,308.8h-35.2v-35.2H309V308.8z M274.6,308h33.7v-33.7h-33.7V308z"/>
<path class="st0" d="M724.6,416.4h-35.2v-35.2h35.2L724.6,416.4z M690.1,415.7h33.7V382h-33.7V415.7z"/>
<path class="st0" d="M758.3,416.4h-35.2v-35.2h35.2V416.4z M723.9,415.7h33.7V382h-33.7V415.7z"/>
<path class="st0" d="M35.5,343.2H0.4V308h35.2V343.2z M1.1,342.5h33.7v-33.7H1.1V342.5z"/>
<path class="st0" d="M69.3,343.2H34.1V308h35.2V343.2z M34.8,342.5h33.7v-33.7H34.8L34.8,342.5z"/>
<path class="st0" d="M830.1,416.4h-35.2v-35.2h35.2V416.4z M795.6,415.7h33.7V382h-33.7L795.6,415.7z"/>
<path class="st1" d="M1538.4,553.4h75.9c11,0,19.9,8.9,19.9,19.9l0,0c0,11-8.9,19.9-19.9,19.9h-75.9c-11,0-19.9-8.9-19.9-19.9l0,0
	C1518.6,562.3,1527.5,553.4,1538.4,553.4z"/>
<path class="st1" d="M1607.1,271.6h75.9c11,0,19.9,8.9,19.9,19.9l0,0c0,11-8.9,19.9-19.9,19.9c0,0,0,0,0,0h-75.9
	c-11,0-19.9-8.9-19.9-19.9l0,0C1587.2,280.5,1596.1,271.6,1607.1,271.6z"/>
<path class="st1" d="M1823.9,205.3h75.9c11,0,19.9,8.9,19.9,19.9l0,0c0,11-8.9,19.9-19.9,19.9h-75.9c-11,0-19.9-8.9-19.9-19.9
	c0,0,0,0,0,0l0,0C1804,214.2,1812.9,205.3,1823.9,205.3C1823.9,205.3,1823.9,205.3,1823.9,205.3z"/>
<circle class="st1" cx="1794.4" cy="414.9" r="20.5"/>
<circle class="st1" cx="1611.3" cy="449.8" r="20.5"/>
<path class="st0" d="M1810.9,561.8h-24.5v-24.5h24.5V561.8z M1786.9,561.2h23.5v-23.5h-23.5V561.2z"/>
<path class="st0" d="M1834.4,561.8h-24.5v-24.5h24.5V561.8z M1810.4,561.2h23.5v-23.5h-23.5V561.2z"/>
<path class="st0" d="M1884.4,561.8h-24.5v-24.5h24.5V561.8z M1860.4,561.2h23.5v-23.5h-23.5V561.2z"/>
<path class="st0" d="M133.9,351.8h-26.2v-26.2h26.2L133.9,351.8z M108.2,351.3h25.1v-25.1h-25.1V351.3z"/>
<path class="st0" d="M159,351.8h-26.2v-26.2H159V351.8z M133.3,351.3h25.1v-25.1h-25.1L133.3,351.3z"/>
<path class="st1" d="M162.4,398.4h63c9.1,0,16.5,7.4,16.5,16.5l0,0c0,9.1-7.4,16.5-16.5,16.5l0,0h-63c-9.1,0-16.5-7.4-16.5-16.5l0,0
	l0,0C145.9,405.8,153.3,398.4,162.4,398.4z"/>
<circle class="st2" cx="213.5" cy="225.2" r="13.1"/>
<circle class="st2" cx="1683.2" cy="537.2" r="13.1"/>
<circle class="st2" cx="1716" cy="699.1" r="13.1"/>
<circle class="st2" cx="69.3" cy="457.2" r="13.1"/>
<path class="st2" d="M60.5,573.3h144.2c8.2,0,14.9,6.7,14.9,14.9v0c0,8.2-6.7,14.9-14.9,14.9H60.5c-8.2,0-14.9-6.7-14.9-14.9v0
	C45.6,580,52.3,573.3,60.5,573.3z"/>
</svg>
