<svg width="707" height="464" viewBox="0 0 707 464" fill="none" xmlns="http://www.w3.org/2000/svg">
<path d="M340.319 225.989H39.9443C36.5852 225.989 33.8594 223.265 33.8594 219.912V9.81336C33.8594 6.45724 36.5852 3.73634 39.9443 3.73634H340.319C343.678 3.73634 346.402 6.45724 346.402 9.81336V219.912C346.402 223.265 343.678 225.989 340.319 225.989Z" fill="white"/>
<path d="M34 78H346" stroke="#FDEEEA" stroke-width="1.96" stroke-miterlimit="10"/>
<path d="M34 148L346 148" stroke="#FDEEEA" stroke-width="1.96" stroke-miterlimit="10"/>
<path d="M105.049 46.2755C105.049 56.8243 96.4963 65.3766 85.9494 65.3766C75.3999 65.3766 66.8496 56.8243 66.8496 46.2755C66.8496 35.7268 75.3999 27.177 85.9494 27.177C96.4963 27.177 105.049 35.7268 105.049 46.2755Z" fill="#7D4FD7"/>
<path d="M105.049 112.692C105.049 123.002 96.4963 131.358 85.9494 131.358C75.3999 131.358 66.8496 123.002 66.8496 112.692C66.8496 102.382 75.3999 94.0264 85.9494 94.0264C96.4963 94.0264 105.049 102.382 105.049 112.692Z" fill="#7D4FD7"/>
<path d="M105.049 182.145C105.049 192.454 96.4963 200.812 85.9494 200.812C75.3999 200.812 66.8496 192.454 66.8496 182.145C66.8496 171.836 75.3999 163.48 85.9494 163.48C96.4963 163.48 105.049 171.836 105.049 182.145Z" fill="#7D4FD7"/>
<path d="M116.336 37.5951H284.762" stroke="#F1D5CE" stroke-width="0.98" stroke-miterlimit="10" stroke-linecap="round" stroke-linejoin="round"/>
<path d="M116.336 51.4859H141.513" stroke="#F1D5CE" stroke-width="0.98" stroke-miterlimit="10" stroke-linecap="round" stroke-linejoin="round"/>
<path d="M116.336 105.313H284.762" stroke="#F1D5CE" stroke-width="0.98" stroke-miterlimit="10" stroke-linecap="round" stroke-linejoin="round"/>
<path d="M116.336 118.335H205.758" stroke="#F1D5CE" stroke-width="0.98" stroke-miterlimit="10" stroke-linecap="round" stroke-linejoin="round"/>
<path d="M116.336 175.635H153.667" stroke="#F1D5CE" stroke-width="0.98" stroke-miterlimit="10" stroke-linecap="round" stroke-linejoin="round"/>
<path d="M116.336 188.657H284.762" stroke="#F1D5CE" stroke-width="0.98" stroke-miterlimit="10" stroke-linecap="round" stroke-linejoin="round"/>
<path d="M78.1348 47.8335L83.6585 51.4859L93.7619 40.1996" stroke="white" stroke-width="1.22" stroke-miterlimit="10" stroke-linecap="round" stroke-linejoin="round"/>
<path d="M78.1348 114.683L83.6585 118.335L93.7619 107.049" stroke="white" stroke-width="1.22" stroke-miterlimit="10" stroke-linecap="round" stroke-linejoin="round"/>
<path d="M78.1348 184.137L83.6585 187.789L93.7619 176.503" stroke="white" stroke-width="1.22" stroke-miterlimit="10" stroke-linecap="round" stroke-linejoin="round"/>
<path d="M617.271 40.6337C617.271 61.9706 599.974 79.2674 578.638 79.2674C557.301 79.2674 540.004 61.9706 540.004 40.6337C540.004 19.2968 557.301 2 578.638 2C599.974 2 617.271 19.2968 617.271 40.6337Z" stroke="#D88E7C" stroke-width="2" stroke-miterlimit="10" stroke-linecap="round" stroke-linejoin="round"/>
<path d="M578.203 24.5725V41.0678H605.116" stroke="#D88E7C" stroke-width="2" stroke-miterlimit="10" stroke-linecap="round" stroke-linejoin="round"/>
<path d="M650.009 147.853H695.658C701.753 147.853 706.692 142.996 706.692 137.001C706.692 131.006 701.753 126.149 695.658 126.149H650.009C643.913 126.149 638.975 131.006 638.975 137.001C638.975 142.996 643.913 147.853 650.009 147.853Z" fill="#7D4FD7"/>
<path d="M682.385 136.99C682.38 138.67 683.735 140.034 685.412 140.04C687.09 140.045 688.457 138.688 688.462 137.011C688.465 135.332 687.109 133.968 685.433 133.962C683.754 133.957 682.39 135.311 682.385 136.99Z" fill="white"/>
<path d="M670.23 136.99C670.225 138.67 671.581 140.034 673.257 140.04C674.936 140.045 676.3 138.688 676.308 137.011C676.31 135.332 674.955 133.968 673.278 133.962C671.599 133.957 670.236 135.311 670.23 136.99Z" fill="white"/>
<path d="M657.207 136.993C657.202 138.67 658.558 140.034 660.235 140.04C661.915 140.045 663.279 138.691 663.284 137.011C663.289 135.332 661.933 133.968 660.256 133.962C658.577 133.957 657.212 135.313 657.207 136.993Z" fill="white"/>
<path d="M449.713 337.115H507.93C540.649 337.115 563.535 316.05 568.969 283.834L583.412 198.207" stroke="#1B172C" stroke-width="5.463" stroke-miterlimit="10" stroke-linecap="round" stroke-linejoin="round"/>
<path d="M450.582 463L476.755 342.563C479.825 328.731 492.168 318.883 506.43 318.883C520.905 318.883 533.37 329.021 536.22 343.114L559.972 463" stroke="white" stroke-width="1.879" stroke-miterlimit="10"/>
<path d="M334.246 445.292L347.65 403.343L368.973 402.228L355.6 447.242L335.034 447.373L334.246 445.292Z" fill="#FE9999"/>
<path d="M358.297 438.631C358.297 438.631 340.655 446.052 332.368 434.35L296.047 456.923L363.764 456.475L358.297 438.631Z" fill="black"/>
<path d="M296.09 463L363.764 462.547L363.721 456.055L296.047 456.508L296.09 463Z" fill="white"/>
<path d="M333.363 444.667C333.164 444.584 332.982 444.445 332.845 444.261C329.939 440.315 327.02 438.365 326.991 438.349C326.416 437.97 326.26 437.2 326.644 436.633C327.028 436.063 327.818 435.924 328.382 436.288C328.516 436.377 331.685 438.477 334.875 442.804C335.283 443.357 335.159 444.133 334.598 444.534C334.228 444.798 333.755 444.834 333.363 444.667Z" fill="white"/>
<path d="M327.286 447.282C327.084 447.207 326.904 447.082 326.768 446.914C323.862 443.366 320.943 441.611 320.911 441.596C320.339 441.256 320.181 440.563 320.567 440.052C320.951 439.542 321.741 439.409 322.305 439.742C322.439 439.822 325.608 441.711 328.798 445.605C329.206 446.103 329.079 446.802 328.518 447.159C328.148 447.4 327.678 447.432 327.286 447.282Z" fill="white"/>
<path d="M321.383 449.885C321.204 449.81 321.04 449.685 320.916 449.52C318.302 445.971 315.675 444.216 315.649 444.201C315.132 443.858 314.989 443.168 315.337 442.657C315.683 442.146 316.393 442.014 316.9 442.347C317.021 442.427 319.872 444.314 322.745 448.211C323.11 448.706 322.999 449.405 322.494 449.765C322.161 450.003 321.735 450.038 321.383 449.885Z" fill="white"/>
<path d="M409.777 278.947L391.174 280.132C378.072 280.966 366.927 290.018 363.397 302.699L334.246 415.25L374.642 411.483L407.208 312.614L409.777 278.947Z" fill="#5F34DD"/>
<path d="M377.749 420.46H329.037L332.416 402.228H381.128L377.749 420.46Z" fill="#4A1ECD"/>
<path d="M412.383 445.266L412.995 403.357L434.087 402.228L433.505 447.24L413.163 447.373L412.383 445.266Z" fill="#FE9999"/>
<path d="M436.434 438.631C436.434 438.631 418.792 446.052 410.505 434.35L374.184 456.923L441.901 456.475L436.434 438.631Z" fill="black"/>
<path d="M374.227 463L441.901 462.547L441.858 456.055L374.184 456.508L374.227 463Z" fill="white"/>
<path d="M410.805 444.667C410.626 444.584 410.462 444.445 410.338 444.261C407.723 440.315 405.096 438.365 405.07 438.349C404.553 437.97 404.412 437.2 404.758 436.633C405.104 436.063 405.814 435.924 406.322 436.288C406.442 436.377 409.294 438.477 412.165 442.804C412.533 443.357 412.422 444.133 411.916 444.534C411.583 444.798 411.158 444.834 410.805 444.667Z" fill="white"/>
<path d="M405.423 447.282C405.221 447.207 405.041 447.082 404.904 446.914C401.996 443.366 399.08 441.611 399.048 441.596C398.476 441.256 398.318 440.563 398.704 440.052C399.088 439.542 399.878 439.409 400.441 439.742C400.576 439.822 403.744 441.711 406.934 445.605C407.342 446.103 407.216 446.802 406.655 447.159C406.284 447.4 405.815 447.432 405.423 447.282Z" fill="white"/>
<path d="M399.344 449.885C399.145 449.81 398.962 449.685 398.825 449.52C395.92 445.971 393.002 444.216 392.972 444.201C392.398 443.858 392.239 443.168 392.626 442.657C393.01 442.146 393.799 442.014 394.363 442.347C394.497 442.427 397.666 444.314 400.855 448.211C401.263 448.706 401.14 449.405 400.579 449.765C400.208 450.003 399.736 450.038 399.344 449.885Z" fill="white"/>
<path d="M524.172 277.211L466.034 279.531L422.617 280.421C409.946 280.421 399.62 288.074 399.433 300.758C398.85 339.763 401.864 420.826 403.696 420.458C406.17 419.965 441.756 420.458 441.756 420.458L445.375 331.892L473.259 334.929C480.129 334.986 500.213 336.284 506.344 333.174C519.031 326.734 535.224 311.662 524.172 277.211Z" fill="#734AEA"/>
<path d="M445.374 420.46H396.756V402.228H445.374V420.46Z" fill="#663AE6"/>
<path d="M445.372 331.906L444.504 311.938" stroke="#1B172C" stroke-width="0.844" stroke-miterlimit="10"/>
<path d="M355.083 207.921L331.805 196.002C331.805 196.002 312.81 194.567 301.269 197.138C300.057 197.405 299.29 198.62 299.581 199.854C299.837 200.945 300.847 201.668 301.937 201.548L312.592 200.351L306.854 204.349C305.302 205.431 305.476 207.829 307.169 208.665C307.874 209.013 308.695 209 309.383 208.615C312.569 206.808 322.591 202.103 332.359 207.732L323.248 211.922C321.456 212.749 320.97 215.124 322.292 216.612C322.929 217.329 323.864 217.683 324.803 217.559L333.285 216.434C333.285 216.434 343.258 220.594 352.497 216.054L355.083 207.921Z" fill="#FCA0A0"/>
<path d="M431.274 178.239C423.889 196.194 413.33 231.952 413.33 231.952L354.985 204.67L347.27 224.557L396.767 258.111L450.908 255.869L454.923 213.828L431.274 178.239Z" fill="#F36867"/>
<path d="M441.345 165.564C437.405 168.524 433.679 172.422 431.537 177.402L428.01 278.877C428.01 278.877 490.457 291.993 524.377 276.879C524.377 276.879 523.42 191.896 504.101 169.403C504.101 169.403 498.014 157.46 467.051 157.403C457.838 157.385 448.701 160.036 441.345 165.564Z" fill="#F36867"/>
<path d="M435.822 195.603L440.163 266.793" stroke="#121E35" stroke-width="0.735" stroke-miterlimit="10"/>
<path d="M375.697 254.586L374.843 237.345C374.843 237.345 368.596 224.442 362.898 224.257C358.716 224.125 353.443 226.93 350.645 229.87C349.374 231.203 349.712 233.354 351.367 234.183C354.081 235.541 358.214 237.966 360.325 240.981C360.325 240.981 357.568 254.888 362.221 260.612C364.589 263.524 378.523 266.793 378.523 266.793L375.697 254.586Z" fill="#FCA0A0"/>
<path d="M470.637 174.766L459.415 245.587L375.051 249.23V278.947L465.776 276.761C469.241 276.963 471.87 275.852 473.747 273.917L474.667 274.35C474.667 274.35 499.239 274.764 506.145 191.211L470.637 174.766Z" fill="#F36867"/>
<path d="M382.865 249.429L459.679 245.943L468.814 187.789" stroke="#121E35" stroke-width="0.735" stroke-miterlimit="10"/>
<path d="M459.264 245.957L471.418 249.429" stroke="#121E35" stroke-width="0.735" stroke-miterlimit="10"/>
<path d="M504.409 213.834L495.957 251.582C493.83 261.08 488.683 269.633 481.287 275.952L477.496 278.947" stroke="#121E35" stroke-width="0.735" stroke-miterlimit="10"/>
<path d="M426.059 92.8045C426.059 92.8045 428.165 102.81 426.059 108.908C423.95 115.005 417.242 117.871 420.253 133.793C423.265 149.715 420.052 150.091 419.328 154.59C419.328 154.59 483.538 160.607 515.695 144.19C515.695 144.19 510.257 134.9 504.235 124.592C498.209 114.284 495.949 97.3368 495.949 97.3368L471.325 87.9492L426.059 92.8045Z" fill="#121E35"/>
<path d="M441.151 81.1105C440.418 80.8832 443.268 76.689 443.998 76.454C455.408 72.8346 479.781 68.0428 492.177 87.956C501.286 102.592 492.138 130.12 472.998 138.449C454.762 146.385 457.867 86.3059 457.867 86.3059L441.151 81.1105Z" fill="#121E35"/>
<path d="M446.175 118.55C446.776 123.55 443.211 128.087 438.213 128.687C433.216 129.288 428.679 125.725 428.076 120.725C427.475 115.728 431.041 111.188 436.038 110.588C441.038 109.987 445.575 113.552 446.175 118.55Z" fill="#3EE3B9"/>
<path d="M448.846 142.397L451.071 161.928C451.838 168.788 456.468 171.98 463.203 171.171C468.95 170.479 473.997 166.855 474.023 161.054L469.043 130.49L448.846 142.397Z" fill="#FCA0A0"/>
<path d="M450.506 154.799C464.316 153.607 471.418 133.962 471.418 133.962L448.846 140.695L450.506 154.799Z" fill="#1B172C"/>
<path d="M455.147 145.218C443.459 145.83 433.345 137.234 432.517 127.843L430.698 105.676C429.66 93.9051 438.279 83.4426 450.181 82.0347C462.363 80.5911 475.561 88.9034 477.026 100.912L478.291 118.758C479.272 132.559 470.13 144.09 455.147 145.218Z" fill="#FCA0A0"/>
<path d="M467.152 98.1436C461.567 106.49 470.686 118.335 470.686 118.335L487.914 97.4867C487.914 97.4867 470.462 93.2013 467.152 98.1436Z" fill="#121E35"/>
<path d="M488.716 115.944C489.317 120.945 485.752 125.484 480.754 126.083C475.757 126.683 471.218 123.12 470.617 118.12C470.016 113.122 473.582 108.582 478.579 107.984C483.579 107.38 488.116 110.946 488.716 115.944Z" fill="#3EE3B9"/>
<path d="M477.525 120.072C477.525 120.072 476.796 113.735 482.705 114.003" stroke="#1B172C" stroke-width="0.562" stroke-miterlimit="10" stroke-linecap="round" stroke-linejoin="round"/>
<path d="M443.81 124.412L443.637 127.012L446.241 127.017" stroke="#1B172C" stroke-width="0.562" stroke-miterlimit="10" stroke-linecap="round" stroke-linejoin="round"/>
<path d="M456.501 108.793C456.501 108.793 451.431 108.598 451.449 110.189C451.449 110.189 451.501 111.264 455.924 111.37C460.344 111.473 461.481 111.193 461.841 110.173C462.198 109.154 458.876 108.742 456.501 108.793Z" fill="#793641"/>
<path d="M436.462 108.846C436.462 108.846 440.619 108.401 441.028 109.916C441.028 109.916 441.269 110.941 437.627 111.266C433.983 111.593 432.779 111.258 432.399 110.434C431.966 109.501 434.48 108.921 436.462 108.846Z" fill="#793641"/>
<path d="M452.318 119.203C452.318 119.203 454.449 115.382 458.396 119.078" stroke="#1B172C" stroke-width="0.705" stroke-miterlimit="10" stroke-linecap="round" stroke-linejoin="round"/>
<path d="M434.955 119.203C434.955 119.203 437.131 117.334 440.164 119.081" stroke="#1B172C" stroke-width="0.705" stroke-miterlimit="10" stroke-linecap="round" stroke-linejoin="round"/>
<path d="M447.977 132.147C447.977 132.147 451.329 132.923 454.054 129.621" stroke="#1B172C" stroke-width="0.705" stroke-miterlimit="10" stroke-linecap="round" stroke-linejoin="round"/>
<path d="M444.029 76.4957C444.029 76.4957 419.229 85.285 424.369 94.4453C428.175 101.235 453.134 105.446 476.841 100.65C476.841 100.65 487.658 92.0246 474.265 83.0839C474.265 83.0839 467.073 73.1108 444.029 76.4957" fill="#121E35"/>
<path d="M444.504 163.537C444.504 163.537 451.506 158.952 461.82 157.516C461.82 157.516 474.131 156.748 484.44 159.22C484.44 159.22 483.765 170.308 463.036 172.757C458.961 173.239 454.807 173.139 450.862 172.004C446.897 170.87 445.962 168.082 444.504 163.537Z" fill="#FCA0A0"/>
<path d="M374.537 274.606H303.861V265.925H374.537C376.739 265.925 378.524 267.868 378.524 270.263C378.524 272.663 376.739 274.606 374.537 274.606Z" fill="#061418"/>
<path d="M312.542 274.606H210.702C205.286 274.606 200.535 270.974 199.085 265.725L178.998 193.09C178.262 190.427 180.251 187.789 183 187.789H286.047C288.298 187.789 290.266 189.316 290.839 191.506L312.542 274.606Z" fill="#1C2E34"/>
<path d="M250.034 232.934C250.034 237.73 245.953 241.616 240.92 241.616C235.884 241.616 231.803 237.73 231.803 232.934C231.803 228.141 235.884 224.252 240.92 224.252C245.953 224.252 250.034 228.141 250.034 232.934Z" fill="white"/>
<path d="M286.498 284.156V463" stroke="#1B172C" stroke-width="1.147" stroke-miterlimit="10"/>
<path d="M434.086 292.838H131.094V274.606H434.086V292.838Z" fill="white"/>
<path d="M681.516 463H0" stroke="#1B172C" stroke-width="1.147" stroke-miterlimit="10"/>
</svg>
