<svg width="49" height="48" viewBox="0 0 49 48" fill="none" xmlns="http://www.w3.org/2000/svg">
<path d="M33.0841 22.3814H26.0096V15.3069C26.0096 15.1021 25.842 14.9346 25.6372 14.9346H23.4032C23.1984 14.9346 23.0308 15.1021 23.0308 15.3069V22.3814H15.9563C15.7515 22.3814 15.584 22.549 15.584 22.7538V24.9878C15.584 25.1926 15.7515 25.3602 15.9563 25.3602H23.0308V32.4347C23.0308 32.6394 23.1984 32.807 23.4032 32.807H25.6372C25.842 32.807 26.0096 32.6394 26.0096 32.4347V25.3602H33.0841C33.2889 25.3602 33.4564 25.1926 33.4564 24.9878V22.7538C33.4564 22.549 33.2889 22.3814 33.0841 22.3814Z" fill="#348593"/>
<path d="M24.5211 3.01953C13.0064 3.01953 3.66992 12.356 3.66992 23.8707C3.66992 35.3854 13.0064 44.7219 24.5211 44.7219C36.0358 44.7219 45.3722 35.3854 45.3722 23.8707C45.3722 12.356 36.0358 3.01953 24.5211 3.01953ZM24.5211 41.1846C14.9612 41.1846 7.20717 33.4306 7.20717 23.8707C7.20717 14.3108 14.9612 6.55678 24.5211 6.55678C34.081 6.55678 41.835 14.3108 41.835 23.8707C41.835 33.4306 34.081 41.1846 24.5211 41.1846Z" fill="#348593"/>
</svg>
